# xmcd CD database file
#
# Track frame offsets:
#	150
#	24607
#	49707
#	73714
#	101919
#	119860
#	138983
#	158188
#
# Disc length: 2575 seconds
#
# Revision: 0
# Processed by: cddbd v1.4PL0 Copyright (c) Steve Scherf et al.
# Submitted via: CDex 1.50
#
DISCID=750a0d08
DTITLE=CastorOrquesta Quinteto - Grandes Exodos
DYEAR=2002
DGENRE=Jazz
TTITLE0=Lunario  
TTITLE1=Sabo  
TTITLE2=Papelo  
TTITLE3=Mozambique  
TTITLE4=Esencial  
TTITLE5=Arbol desnudo  
TTITLE6=Jam  
TTITLE7=Sofía
EXTD=YEAR: 2002
EXTT0=
EXTT1=
EXTT2=
EXTT3=
EXTT4=
EXTT5=
EXTT6=
EXTT7=
PLAYORDER=
